<svg xmlns="http://www.w3.org/2000/svg" viewBox="66.06000366210938 5.479997253417963 367.87999267578124 139.04000549316407" style="background: rgba(0, 0, 0, 0);" preserveAspectRatio="xMidYMid"><defs><linearGradient id="editing-outline-gradient" x1="-0.41354545764260087" x2="1.4135454576426008" y1="0.09326335692419985" y2="0.9067366430758002"><stop offset="0" stop-color="#ee4208"></stop><stop offset="1" stop-color="#4139ff"></stop></linearGradient><filter id="editing-outline" x="-100%" y="-100%" width="300%" height="300%"><feMorphology in="SourceGraphic" operator="dilate" radius="1" result="outline"></feMorphology><feComposite operator="out" in="outline" in2="SourceAlpha"></feComposite></filter></defs><g filter="url(#editing-outline)"><g transform="translate(120.76502132415771, 98.40500068664551)"><path d="M5.78-44.94L19.84-44.94L19.84-44.94Q22.94-44.94 25.63-44.27L25.63-44.27L25.63-44.27Q28.31-43.59 30.30-42.08L30.30-42.08L30.30-42.08Q32.28-40.56 33.42-38.13L33.42-38.13L33.42-38.13Q34.56-35.69 34.56-32.19L34.56-32.19L34.56-32.19Q34.56-28.28 33.25-25.81L33.25-25.81L33.25-25.81Q31.94-23.34 29.70-21.91L29.70-21.91L29.70-21.91Q27.47-20.47 24.52-19.94L24.52-19.94L24.52-19.94Q21.56-19.41 18.28-19.41L18.28-19.41L18.28-19.41Q16.50-19.41 14.80-19.53L14.80-19.53L14.80-19.53Q13.09-19.66 11.59-19.81L11.59-19.81L11.59 0L5.78 0L5.78-44.94ZM11.59-40.25L11.59-24.50L11.59-24.50Q13.09-24.31 14.73-24.20L14.73-24.20L14.73-24.20Q16.38-24.09 18.03-24.09L18.03-24.09L18.03-24.09Q20.41-24.09 22.39-24.39L22.39-24.39L22.39-24.39Q24.38-24.69 25.78-25.56L25.78-25.56L25.78-25.56Q27.19-26.44 27.97-28.03L27.97-28.03L27.97-28.03Q28.75-29.63 28.75-32.19L28.75-32.19L28.75-32.19Q28.75-34.53 28.09-36.08L28.09-36.08L28.09-36.08Q27.44-37.63 26.27-38.56L26.27-38.56L26.27-38.56Q25.09-39.50 23.45-39.88L23.45-39.88L23.45-39.88Q21.81-40.25 19.84-40.25L19.84-40.25L11.59-40.25ZM55.44-33.22L55.44-33.22L55.44-33.22Q56.97-33.22 58.63-32.98L58.63-32.98L58.63-32.98Q60.28-32.75 61.88-32.09L61.88-32.09L61.88-32.09Q63.47-31.41 64.89-30.23L64.89-30.23L64.89-30.23Q66.31-29.06 67.41-27.19L67.41-27.19L67.41-27.19Q68.50-25.28 69.13-22.61L69.13-22.61L69.13-22.61Q69.75-19.94 69.75-16.25L69.75-16.25L69.75-16.25Q69.75-12.56 69.13-9.89L69.13-9.89L69.13-9.89Q68.50-7.22 67.41-5.34L67.41-5.34L67.41-5.34Q66.31-3.44 64.89-2.25L64.89-2.25L64.89-2.25Q63.47-1.06 61.88-0.41L61.88-0.41L61.88-0.41Q60.28 0.28 58.63 0.52L58.63 0.52L58.63 0.52Q56.97 0.75 55.44 0.75L55.44 0.75L55.44 0.75Q53.94 0.75 52.30 0.52L52.30 0.52L52.30 0.52Q50.66 0.28 49.06-0.41L49.06-0.41L49.06-0.41Q47.47-1.06 46.06-2.25L46.06-2.25L46.06-2.25Q44.66-3.44 43.56-5.34L43.56-5.34L43.56-5.34Q42.47-7.22 41.84-9.89L41.84-9.89L41.84-9.89Q41.22-12.56 41.22-16.25L41.22-16.25L41.22-16.25Q41.22-19.94 41.84-22.61L41.84-22.61L41.84-22.61Q42.47-25.28 43.56-27.19L43.56-27.19L43.56-27.19Q44.66-29.06 46.06-30.23L46.06-30.23L46.06-30.23Q47.47-31.41 49.06-32.09L49.06-32.09L49.06-32.09Q50.66-32.75 52.28-32.98L52.28-32.98L52.28-32.98Q53.91-33.22 55.44-33.22ZM55.44-28.81L55.44-28.81L55.44-28.81Q53.66-28.81 52.08-28.25L52.08-28.25L52.08-28.25Q50.50-27.69 49.31-26.28L49.31-26.28L49.31-26.28Q48.09-24.84 47.38-22.44L47.38-22.44L47.38-22.44Q46.66-20.03 46.66-16.25L46.66-16.25L46.66-16.25Q46.66-12.50 47.38-10.08L47.38-10.08L47.38-10.08Q48.09-7.66 49.31-6.25L49.31-6.25L49.31-6.25Q50.50-4.81 52.08-4.27L52.08-4.27L52.08-4.27Q53.66-3.72 55.44-3.72L55.44-3.72L55.44-3.72Q57.25-3.72 58.86-4.27L58.86-4.27L58.86-4.27Q60.47-4.81 61.69-6.25L61.69-6.25L61.69-6.25Q62.91-7.66 63.61-10.08L63.61-10.08L63.61-10.08Q64.31-12.50 64.31-16.25L64.31-16.25L64.31-16.25Q64.31-20.03 63.61-22.44L63.61-22.44L63.61-22.44Q62.91-24.84 61.69-26.28L61.69-26.28L61.69-26.28Q60.47-27.69 58.86-28.25L58.86-28.25L58.86-28.25Q57.25-28.81 55.44-28.81ZM83.69-24.97L83.97-24.97L83.97-24.97Q84.94-26.91 86.05-28.47L86.05-28.47L86.05-28.47Q87.16-30.03 88.50-31.13L88.50-31.13L88.50-31.13Q89.72-32.19 91.19-32.70L91.19-32.70L91.19-32.70Q92.66-33.22 94.53-33.22L94.53-33.22L94.53-33.22Q95.16-33.22 95.98-33.16L95.98-33.16L95.98-33.16Q96.81-33.09 97.56-32.94L97.56-32.94L97.56-32.94Q97.44-31.38 97.27-30L97.27-30L97.27-30Q97.09-28.63 96.81-27.22L96.81-27.22L96.81-27.22Q95.25-27.50 93.95-27.63L93.95-27.63L93.95-27.63Q92.66-27.75 91.50-27.56L91.50-27.56L91.50-27.56Q90.13-27.31 89.11-26.64L89.11-26.64L89.11-26.64Q88.09-25.97 87.23-24.86L87.23-24.86L87.23-24.86Q86.38-23.75 85.56-22.20L85.56-22.20L85.56-22.20Q84.75-20.66 83.78-18.66L83.78-18.66L83.78 0L78.41 0L78.41-20.03L78.41-20.03Q78.41-22 78.36-23.50L78.36-23.50L78.36-23.50Q78.31-25 78.17-26.36L78.17-26.36L78.17-26.36Q78.03-27.72 77.75-29.05L77.75-29.05L77.75-29.05Q77.47-30.38 77-32L77-32L77-32Q78.31-32.34 79.58-32.63L79.58-32.63L79.58-32.63Q80.84-32.91 82.16-33.16L82.16-33.16L82.16-33.16Q82.59-31.91 82.86-30.94L82.86-30.94L82.86-30.94Q83.13-29.97 83.28-29.05L83.28-29.05L83.28-29.05Q83.44-28.13 83.52-27.17L83.52-27.17L83.52-27.17Q83.59-26.22 83.69-24.97L83.69-24.97ZM107.03-32.50L107.03-39.94L112.41-39.94L112.41-32.50L123.34-32.50L123.34-27.97L112.41-27.97L112.41-9.31L112.41-9.31Q112.41-7.44 112.52-6.45L112.52-6.45L112.52-6.45Q112.63-5.47 113.06-4.91L113.06-4.91L113.06-4.91Q113.88-3.78 116.34-3.78L116.34-3.78L116.34-3.78Q117.72-3.78 119-4.06L119-4.06L119-4.06Q120.31-4.34 121.41-4.69L121.41-4.69L121.41-4.69Q122.28-2.78 123-0.50L123-0.50L123-0.50Q119.31 0.75 115.56 0.75L115.56 0.75L115.56 0.75Q112.84 0.75 111.20 0.14L111.20 0.14L111.20 0.14Q109.56-0.47 108.63-1.84L108.63-1.84L108.63-1.84Q107.66-3.28 107.34-5.28L107.34-5.28L107.34-5.28Q107.03-7.28 107.03-10.81L107.03-10.81L107.03-27.97L102.34-27.97L102.34-32.50L107.03-32.50ZM129.03-32.50L134.47-32.50L134.47-36.03L134.47-36.03Q134.47-38.34 134.91-40.03L134.91-40.03L134.91-40.03Q135.34-41.72 136.44-43.16L136.44-43.16L136.44-43.16Q137.53-44.59 139.64-45.33L139.64-45.33L139.64-45.33Q141.75-46.06 144.84-46.06L144.84-46.06L144.84-46.06Q148.88-46.06 154.44-44.72L154.44-44.72L153.47-40.31L153.47-40.31Q148.22-41.41 145.47-41.41L145.47-41.41L145.47-41.41Q144.13-41.41 143.20-41.27L143.20-41.27L143.20-41.27Q142.28-41.13 141.66-40.70L141.66-40.70L141.66-40.70Q141.03-40.28 140.69-39.81L140.69-39.81L140.69-39.81Q140.34-39.34 140.17-38.41L140.17-38.41L140.17-38.41Q140-37.47 139.95-36.63L139.95-36.63L139.95-36.63Q139.91-35.78 139.91-34.28L139.91-34.28L139.91-32.50L150.34-32.50L150.34-27.97L139.91-27.97L139.91-4.53L150.34-4.53L150.34 0L129.03 0L129.03-4.53L134.47-4.53L134.47-27.97L129.03-27.97L129.03-32.50ZM171.78-33.22L171.78-33.22L171.78-33.22Q173.31-33.22 174.97-32.98L174.97-32.98L174.97-32.98Q176.63-32.75 178.22-32.09L178.22-32.09L178.22-32.09Q179.81-31.41 181.23-30.23L181.23-30.23L181.23-30.23Q182.66-29.06 183.75-27.19L183.75-27.19L183.75-27.19Q184.84-25.28 185.47-22.61L185.47-22.61L185.47-22.61Q186.09-19.94 186.09-16.25L186.09-16.25L186.09-16.25Q186.09-12.56 185.47-9.89L185.47-9.89L185.47-9.89Q184.84-7.22 183.75-5.34L183.75-5.34L183.75-5.34Q182.66-3.44 181.23-2.25L181.23-2.25L181.23-2.25Q179.81-1.06 178.22-0.41L178.22-0.41L178.22-0.41Q176.63 0.28 174.97 0.52L174.97 0.52L174.97 0.52Q173.31 0.75 171.78 0.75L171.78 0.75L171.78 0.75Q170.28 0.75 168.64 0.52L168.64 0.52L168.64 0.52Q167 0.28 165.41-0.41L165.41-0.41L165.41-0.41Q163.81-1.06 162.41-2.25L162.41-2.25L162.41-2.25Q161-3.44 159.91-5.34L159.91-5.34L159.91-5.34Q158.81-7.22 158.19-9.89L158.19-9.89L158.19-9.89Q157.56-12.56 157.56-16.25L157.56-16.25L157.56-16.25Q157.56-19.94 158.19-22.61L158.19-22.61L158.19-22.61Q158.81-25.28 159.91-27.19L159.91-27.19L159.91-27.19Q161-29.06 162.41-30.23L162.41-30.23L162.41-30.23Q163.81-31.41 165.41-32.09L165.41-32.09L165.41-32.09Q167-32.75 168.63-32.98L168.63-32.98L168.63-32.98Q170.25-33.22 171.78-33.22ZM171.78-28.81L171.78-28.81L171.78-28.81Q170-28.81 168.42-28.25L168.42-28.25L168.42-28.25Q166.84-27.69 165.66-26.28L165.66-26.28L165.66-26.28Q164.44-24.84 163.72-22.44L163.72-22.44L163.72-22.44Q163-20.03 163-16.25L163-16.25L163-16.25Q163-12.50 163.72-10.08L163.72-10.08L163.72-10.08Q164.44-7.66 165.66-6.25L165.66-6.25L165.66-6.25Q166.84-4.81 168.42-4.27L168.42-4.27L168.42-4.27Q170-3.72 171.78-3.72L171.78-3.72L171.78-3.72Q173.59-3.72 175.20-4.27L175.20-4.27L175.20-4.27Q176.81-4.81 178.03-6.25L178.03-6.25L178.03-6.25Q179.25-7.66 179.95-10.08L179.95-10.08L179.95-10.08Q180.66-12.50 180.66-16.25L180.66-16.25L180.66-16.25Q180.66-20.03 179.95-22.44L179.95-22.44L179.95-22.44Q179.25-24.84 178.03-26.28L178.03-26.28L178.03-26.28Q176.81-27.69 175.20-28.25L175.20-28.25L175.20-28.25Q173.59-28.81 171.78-28.81ZM198.97-44.94L198.97-12.63L198.97-12.63Q198.97-10.06 199.03-8.33L199.03-8.33L199.03-8.33Q199.09-6.59 199.19-5.28L199.19-5.28L199.19-5.28Q199.28-3.97 199.48-2.91L199.48-2.91L199.48-2.91Q199.69-1.84 200-0.56L200-0.56L200-0.56Q198.69-0.22 197.38 0.08L197.38 0.08L197.38 0.08Q196.06 0.38 194.75 0.59L194.75 0.59L194.75 0.59Q194.13-1.44 193.86-3.13L193.86-3.13L193.86-3.13Q193.59-4.81 193.59-6.44L193.59-6.44L193.59-44.94L198.97-44.94ZM212.47-45.09L212.47-45.09L212.47-45.09Q213.91-45.09 214.97-44.09L214.97-44.09L214.97-44.09Q216-43 216-41.53L216-41.53L216-41.53Q216-40.03 214.97-39L214.97-39L214.97-39Q213.91-37.94 212.47-37.94L212.47-37.94L212.47-37.94Q210.97-37.94 209.91-39L209.91-39L209.91-39Q208.84-40 208.84-41.53L208.84-41.53L208.84-41.53Q208.84-43.03 209.91-44.09L209.91-44.09L209.91-44.09Q210.97-45.09 212.47-45.09ZM209.72 0L209.72-32.50L215.09-32.50L215.09 0L209.72 0ZM238.38-33.22L238.38-33.22L238.38-33.22Q239.91-33.22 241.56-32.98L241.56-32.98L241.56-32.98Q243.22-32.75 244.81-32.09L244.81-32.09L244.81-32.09Q246.41-31.41 247.83-30.23L247.83-30.23L247.83-30.23Q249.25-29.06 250.34-27.19L250.34-27.19L250.34-27.19Q251.44-25.28 252.06-22.61L252.06-22.61L252.06-22.61Q252.69-19.94 252.69-16.25L252.69-16.25L252.69-16.25Q252.69-12.56 252.06-9.89L252.06-9.89L252.06-9.89Q251.44-7.22 250.34-5.34L250.34-5.34L250.34-5.34Q249.25-3.44 247.83-2.25L247.83-2.25L247.83-2.25Q246.41-1.06 244.81-0.41L244.81-0.41L244.81-0.41Q243.22 0.28 241.56 0.52L241.56 0.52L241.56 0.52Q239.91 0.75 238.38 0.75L238.38 0.75L238.38 0.75Q236.88 0.75 235.23 0.52L235.23 0.52L235.23 0.52Q233.59 0.28 232-0.41L232-0.41L232-0.41Q230.41-1.06 229-2.25L229-2.25L229-2.25Q227.59-3.44 226.50-5.34L226.50-5.34L226.50-5.34Q225.41-7.22 224.78-9.89L224.78-9.89L224.78-9.89Q224.16-12.56 224.16-16.25L224.16-16.25L224.16-16.25Q224.16-19.94 224.78-22.61L224.78-22.61L224.78-22.61Q225.41-25.28 226.50-27.19L226.50-27.19L226.50-27.19Q227.59-29.06 229-30.23L229-30.23L229-30.23Q230.41-31.41 232-32.09L232-32.09L232-32.09Q233.59-32.75 235.22-32.98L235.22-32.98L235.22-32.98Q236.84-33.22 238.38-33.22ZM238.38-28.81L238.38-28.81L238.38-28.81Q236.59-28.81 235.02-28.25L235.02-28.25L235.02-28.25Q233.44-27.69 232.25-26.28L232.25-26.28L232.25-26.28Q231.03-24.84 230.31-22.44L230.31-22.44L230.31-22.44Q229.59-20.03 229.59-16.25L229.59-16.25L229.59-16.25Q229.59-12.50 230.31-10.08L230.31-10.08L230.31-10.08Q231.03-7.66 232.25-6.25L232.25-6.25L232.25-6.25Q233.44-4.81 235.02-4.27L235.02-4.27L235.02-4.27Q236.59-3.72 238.38-3.72L238.38-3.72L238.38-3.72Q240.19-3.72 241.80-4.27L241.80-4.27L241.80-4.27Q243.41-4.81 244.63-6.25L244.63-6.25L244.63-6.25Q245.84-7.66 246.55-10.08L246.55-10.08L246.55-10.08Q247.25-12.50 247.25-16.25L247.25-16.25L247.25-16.25Q247.25-20.03 246.55-22.44L246.55-22.44L246.55-22.44Q245.84-24.84 244.63-26.28L244.63-26.28L244.63-26.28Q243.41-27.69 241.80-28.25L241.80-28.25L241.80-28.25Q240.19-28.81 238.38-28.81Z" fill="url(#editing-outline-gradient)"></path></g></g><style>text {
  font-size: 64px;
  font-family: Arial Black;
  dominant-baseline: central;
  text-anchor: middle;
}</style></svg>